<?xml version="1.0" encoding="utf-8"?>
<svg viewBox="125.097 52.6 283.498 46.08" xmlns="http://www.w3.org/2000/svg">
  <defs>
    <linearGradient id="editing-gradient-gradient" x1="0" x2="1" y1="0.5" y2="0.5" gradientUnits="objectBoundingBox">
      <stop offset="0" stop-color="#ff1d25"/>
      <stop offset="1" stop-color="#0082e6"/>
    </linearGradient>
    <style>text {
  font-size: 64px;
  font-family: Arial Black;
  dominant-baseline: central;
  text-anchor: middle;
}</style>
  </defs>
  <g transform="matrix(0.89378, 0, 0, 1, 119.895164, 98.040001)" style="">
    <path d="M52.61-1.98L52.61-1.98Q52.74-1.73 52.74-1.41L52.74-1.41L52.74-1.41Q52.74-0.83 52.32-0.42L52.32-0.42L52.32-0.42Q51.90 0 51.33 0L51.33 0L36.80 0L36.80 0Q35.90 0 35.17-0.45L35.17-0.45L35.17-0.45Q34.43-0.90 34.11-1.60L34.11-1.60L28.48-14.27L23.10-14.27L23.10-1.73L23.10-1.73Q23.10-1.02 22.59-0.51L22.59-0.51L22.59-0.51Q22.08 0 21.38 0L21.38 0L7.55 0L7.55 0Q6.85 0 6.34-0.51L6.34-0.51L6.34-0.51Q5.82-1.02 5.82-1.73L5.82-1.73L5.82-43.07L5.82-43.07Q5.82-43.78 6.34-44.29L6.34-44.29L6.34-44.29Q6.85-44.80 7.55-44.80L7.55-44.80L32.45-44.80L32.45-44.80Q38.21-44.80 42.53-42.94L42.53-42.94L42.53-42.94Q46.85-41.09 49.15-37.57L49.15-37.57L49.15-37.57Q51.46-34.05 51.46-29.31L51.46-29.31L51.46-29.31Q51.46-20.61 44.74-16.70L44.74-16.70L52.61-1.98ZM23.10-26.11L31.10-26.11L31.10-26.11Q32.51-26.11 33.28-27.04L33.28-27.04L33.28-27.04Q34.05-27.97 34.05-29.38L34.05-29.38L34.05-29.38Q34.05-30.78 33.31-31.84L33.31-31.84L33.31-31.84Q32.58-32.90 31.10-32.90L31.10-32.90L23.10-32.90L23.10-26.11ZM102.34-12.48L102.34-12.48Q103.04-12.48 103.55-11.97L103.55-11.97L103.55-11.97Q104.06-11.46 104.06-10.75L104.06-10.75L104.06-1.73L104.06-1.73Q104.06-1.02 103.55-0.51L103.55-0.51L103.55-0.51Q103.04 0 102.34 0L102.34 0L61.89 0L61.89 0Q61.18 0 60.67-0.51L60.67-0.51L60.67-0.51Q60.16-1.02 60.16-1.73L60.16-1.73L60.16-43.07L60.16-43.07Q60.16-43.78 60.67-44.29L60.67-44.29L60.67-44.29Q61.18-44.80 61.89-44.80L61.89-44.80L101.70-44.80L101.70-44.80Q102.40-44.80 102.91-44.29L102.91-44.29L102.91-44.29Q103.42-43.78 103.42-43.07L103.42-43.07L103.42-34.05L103.42-34.05Q103.42-33.34 102.91-32.83L102.91-32.83L102.91-32.83Q102.40-32.32 101.70-32.32L101.70-32.32L76.80-32.32L76.80-28.29L98.18-28.29L98.18-28.29Q98.88-28.29 99.39-27.78L99.39-27.78L99.39-27.78Q99.90-27.26 99.90-26.56L99.90-26.56L99.90-18.24L99.90-18.24Q99.90-17.54 99.39-17.02L99.39-17.02L99.39-17.02Q98.88-16.51 98.18-16.51L98.18-16.51L76.80-16.51L76.80-12.48L102.34-12.48ZM135.81-44.80L135.81-44.80Q146.62-44.80 153.12-40.13L153.12-40.13L153.12-40.13Q159.62-35.46 159.62-25.66L159.62-25.66L159.62-19.14L159.62-19.14Q159.62-9.15 153.18-4.58L153.18-4.58L153.18-4.58Q146.75 0 135.81 0L135.81 0L115.39 0L115.39 0Q114.69 0 114.18-0.51L114.18-0.51L114.18-0.51Q113.66-1.02 113.66-1.73L113.66-1.73L113.66-43.07L113.66-43.07Q113.66-43.78 114.18-44.29L114.18-44.29L114.18-44.29Q114.69-44.80 115.39-44.80L115.39-44.80L135.81-44.80ZM130.30-12.48L136.13-12.48L136.13-12.48Q139.14-12.48 140.90-13.92L140.90-13.92L140.90-13.92Q142.66-15.36 142.66-17.98L142.66-17.98L142.66-26.82L142.66-26.82Q142.66-29.44 140.90-30.88L140.90-30.88L140.90-30.88Q139.14-32.32 136.13-32.32L136.13-32.32L130.30-32.32L130.30-12.48ZM199.10-31.68L199.10-13.12L210.69-13.12L210.69-13.12Q211.39-13.12 211.90-12.61L211.90-12.61L211.90-12.61Q212.42-12.10 212.42-11.39L212.42-11.39L212.42-1.73L212.42-1.73Q212.42-1.02 211.90-0.51L211.90-0.51L211.90-0.51Q211.39 0 210.69 0L210.69 0L170.11 0L170.11 0Q169.41 0 168.90-0.51L168.90-0.51L168.90-0.51Q168.38-1.02 168.38-1.73L168.38-1.73L168.38-11.39L168.38-11.39Q168.38-12.10 168.90-12.61L168.90-12.61L168.90-12.61Q169.41-13.12 170.11-13.12L170.11-13.12L181.82-13.12L181.82-31.68L170.11-31.68L170.11-31.68Q169.41-31.68 168.90-32.19L168.90-32.19L168.90-32.19Q168.38-32.70 168.38-33.41L168.38-33.41L168.38-43.07L168.38-43.07Q168.38-43.78 168.90-44.29L168.90-44.29L168.90-44.29Q169.41-44.80 170.11-44.80L170.11-44.80L210.69-44.80L210.69-44.80Q211.39-44.80 211.90-44.29L211.90-44.29L211.90-44.29Q212.42-43.78 212.42-43.07L212.42-43.07L212.42-33.41L212.42-33.41Q212.42-32.70 211.90-32.19L211.90-32.19L211.90-32.19Q211.39-31.68 210.69-31.68L210.69-31.68L199.10-31.68ZM253.18-43.07L253.18-43.07Q254.14-44.80 255.94-44.80L255.94-44.80L267.65-44.80L267.65-44.80Q268.35-44.80 268.86-44.29L268.86-44.29L268.86-44.29Q269.38-43.78 269.38-43.07L269.38-43.07L269.38-1.73L269.38-1.73Q269.38-1.02 268.86-0.51L268.86-0.51L268.86-0.51Q268.35 0 267.65 0L267.65 0L256.06 0L256.06 0Q255.36 0 254.85-0.51L254.85-0.51L254.85-0.51Q254.34-1.02 254.34-1.73L254.34-1.73L254.34-21.57L249.66-12.35L249.66-12.35Q249.47-11.90 248.77-11.33L248.77-11.33L248.77-11.33Q248.06-10.75 246.98-10.75L246.98-10.75L242.62-10.75L242.62-10.75Q241.54-10.75 240.83-11.33L240.83-11.33L240.83-11.33Q240.13-11.90 239.94-12.35L239.94-12.35L235.26-21.57L235.26-1.73L235.26-1.73Q235.26-1.02 234.75-0.51L234.75-0.51L234.75-0.51Q234.24 0 233.54 0L233.54 0L221.95 0L221.95 0Q221.25 0 220.74-0.51L220.74-0.51L220.74-0.51Q220.22-1.02 220.22-1.73L220.22-1.73L220.22-43.07L220.22-43.07Q220.22-43.78 220.74-44.29L220.74-44.29L220.74-44.29Q221.25-44.80 221.95-44.80L221.95-44.80L233.66-44.80L233.66-44.80Q235.46-44.80 236.42-43.07L236.42-43.07L244.80-27.71L253.18-43.07ZM323.01-18.50L323.01-18.50Q323.01-8.70 316.51-4.03L316.51-4.03L316.51-4.03Q310.02 0.64 299.20 0.64L299.20 0.64L299.20 0.64Q288.38 0.64 281.89-4.03L281.89-4.03L281.89-4.03Q275.39-8.70 275.39-18.62L275.39-18.62L275.39-26.18L275.39-26.18Q275.39-32.70 278.50-37.02L278.50-37.02L278.50-37.02Q281.60-41.34 286.98-43.39L286.98-43.39L286.98-43.39Q292.35-45.44 299.20-45.44L299.20-45.44L299.20-45.44Q306.05-45.44 311.39-43.39L311.39-43.39L311.39-43.39Q316.74-41.34 319.87-37.06L319.87-37.06L319.87-37.06Q323.01-32.77 323.01-26.30L323.01-26.30L323.01-18.50ZM292.67-17.28L292.67-17.28Q292.67-14.66 294.43-13.25L294.43-13.25L294.43-13.25Q296.19-11.84 299.20-11.84L299.20-11.84L299.20-11.84Q302.21-11.84 303.97-13.28L303.97-13.28L303.97-13.28Q305.73-14.72 305.73-17.34L305.73-17.34L305.73-27.46L305.73-27.46Q305.73-30.08 303.97-31.52L303.97-31.52L303.97-31.52Q302.21-32.96 299.20-32.96L299.20-32.96L299.20-32.96Q296.19-32.96 294.43-31.55L294.43-31.55L294.43-31.55Q292.67-30.14 292.67-27.52L292.67-27.52L292.67-17.28Z" fill="url(#editing-gradient-gradient)"/>
  </g>
</svg>